<?xml version="1.0" encoding="utf-8"?>
<svg data-name="Layer 1" viewBox="0 0 100 100" x="0px" y="0px" xmlns="http://www.w3.org/2000/svg">
  <title>2Artboard 70</title>
  <path d="M98,20a6,6,0,0,1-6,6H50a6,6,0,1,1,0-12H92A6,6,0,0,1,98,20ZM11.26,30.24a6,6,0,0,0,8.48,0l15-15a6,6,0,0,0-8.48-8.49L15.5,17.51l-3.26-3.26a6,6,0,0,0-8.48,8.49ZM92,45.5H50a6,6,0,0,0,0,12H92a6,6,0,0,0,0-12ZM11.26,61.74a6,6,0,0,0,8.48,0l15-15a6,6,0,1,0-8.48-8.49L15.5,49l-3.26-3.26a6,6,0,1,0-8.48,8.49ZM92,77H50a6,6,0,0,0,0,12H92a6,6,0,0,0,0-12ZM15.5,95a6,6,0,0,0,4.24-1.76l15-15a6,6,0,0,0-8.48-8.49L15.5,80.51l-3.26-3.26a6,6,0,0,0-8.48,8.49l7.5,7.5A6,6,0,0,0,15.5,95Z" style="fill: rgb(53, 120, 229);"/>
</svg>